<svg xmlns="http://www.w3.org/2000/svg" width="10" height="20" viewBox="0 0 10 20">
    <path fill="#FFF" fill-rule="nonzero" d="M9.45.004L7.1 0c-2.642 0-4.35 1.914-4.35 4.878v2.248H.384c-.204 0-.37.181-.37.405v3.258c0 .223.166.404.37.404H2.75v8.222c0 .223.166.404.37.404h3.085c.204 0 .37-.18.37-.404v-8.222h2.765c.204 0 .37-.18.37-.404V7.531c0-.107-.038-.21-.107-.286a.355.355 0 0 0-.262-.119H6.574V5.22c0-.916.2-1.381 1.292-1.381l1.584-.001c.205 0 .37-.181.37-.404V.408c0-.223-.165-.403-.37-.404z"/>
</svg>
