<svg xmlns="http://www.w3.org/2000/svg" width="24" height="20" viewBox="0 0 24 20">
    <path fill="#FFF" fill-rule="nonzero" d="M23.57 2.35a9.474 9.474 0 0 1-1.652.557A5.158 5.158 0 0 0 23.278.74a.27.27 0 0 0-.395-.315 9.521 9.521 0 0 1-2.525 1.044.669.669 0 0 1-.6-.15A5.16 5.16 0 0 0 16.342.03c-.546 0-1.096.085-1.636.253a5.007 5.007 0 0 0-3.372 3.61 5.524 5.524 0 0 0-.122 1.903.191.191 0 0 1-.207.209c-3.665-.34-6.97-2.109-9.306-4.979a.27.27 0 0 0-.443.035 5.173 5.173 0 0 0-.7 2.6 5.17 5.17 0 0 0 1.54 3.686 4.623 4.623 0 0 1-1.178-.457.27.27 0 0 0-.4.233 5.178 5.178 0 0 0 3.015 4.77 4.616 4.616 0 0 1-.98-.082.27.27 0 0 0-.308.348 5.177 5.177 0 0 0 4.088 3.526 9.518 9.518 0 0 1-5.337 1.622H.4c-.184 0-.34.12-.386.299a.41.41 0 0 0 .195.452A14.156 14.156 0 0 0 7.33 19.98c2.189 0 4.236-.435 6.086-1.293a13.44 13.44 0 0 0 4.452-3.341 14.655 14.655 0 0 0 2.727-4.573c.606-1.622.927-3.353.927-5.006V5.69a.88.88 0 0 1 .329-.685 10.215 10.215 0 0 0 2.053-2.257c.15-.225-.087-.507-.334-.397z"/>
</svg>
